<?xml version="1.0" encoding="utf-8"?>
<!-- Generator: Adobe Illustrator 25.2.0, SVG Export Plug-In . SVG Version: 6.00 Build 0)  -->
<svg version="1.1" id="Layer_1" xmlns="http://www.w3.org/2000/svg" xmlns:xlink="http://www.w3.org/1999/xlink" x="0px" y="0px"
	 viewBox="0 0 325.1 263.9" style="enable-background:new 0 0 325.1 263.9;" xml:space="preserve">
<style type="text/css">
	.st0{fill:#8F00FF;}
	.st1{fill:none;}
	.st2{fill:#FFFFFF;}
</style>
<path class="st0" d="M183.9,185.9L183.9,185.9L68.2,70L68,69.8l-0.2-0.2L3.9,5.7L0.2,2L0,2.2v96.5l94.7,94.7H154
	C164.8,193.5,174.9,190.7,183.9,185.9L183.9,185.9z"/>
<polygon class="st0" points="120.6,263.5 0.8,263.5 0.8,143.6 "/>
<path class="st1" d="M259.7,124.9"/>
<path class="st1" d="M286,133.8"/>
<path class="st2" d="M285.6,133.1c0,42.2-19.9,79.6-50.8,103.6c-17,13.1-37.2,22.2-59.3,25.8c-3.4,0.5-6.8,1-10.3,1.2l-60.6-60.5
	h59.2c8,0,15.7-1.6,22.7-4.6c0.1,0,0.2-0.1,0.2-0.1c2.3-1,4.7-2.2,6.8-3.5c0.1-0.1,0.2-0.1,0.2-0.1c18.7-10.9,31.3-32,31.3-56.2
	c0-20.1-8.8-38.1-22.6-49.9c-11.1-12-26.6-19.5-43.8-19.5h-71L44.3,26.8L19.7,2h134.5c36.8,0,70,15,93.8,39.3
	C271.3,64.9,285.6,97.3,285.6,133.1z"/>
</svg>
